<svg width="40" height="40" viewBox="0 0 40 40" fill="none" xmlns="http://www.w3.org/2000/svg">
<path d="M19 7C20.1046 7 21 7.89543 21 9C21 10.1046 20.1046 11 19 11H13V30H27V24C27 22.8954 27.8954 22 29 22C30.1046 22 31 22.8954 31 24V30C31 32.2091 29.2091 34 27 34H13C10.7909 34 9 32.2091 9 30V11C9 8.79086 10.7909 7 13 7H19Z" fill="#262626"/>
<path d="M29 7C30.1046 7 31 7.89543 31 9V11H33L33.2041 11.0107C34.2128 11.113 35 11.9643 35 13C35 14.0357 34.2128 14.887 33.2041 14.9893L33 15H31V17C31 18.1046 30.1046 19 29 19C27.8954 19 27 18.1046 27 17V15H25C23.8954 15 23 14.1046 23 13C23 11.8954 23.8954 11 25 11H27V9C27 7.89543 27.8954 7 29 7Z" fill="#262626"/>
</svg>
