<svg width="40" height="40" viewBox="0 0 40 40" fill="none" xmlns="http://www.w3.org/2000/svg">
<path fill-rule="evenodd" clip-rule="evenodd" d="M20 4C28.8366 4 36 11.1634 36 20C36 28.8366 28.8366 36 20 36C11.1634 36 4 28.8366 4 20C4 11.1634 11.1634 4 20 4ZM28.4141 14.5859C27.6818 13.8538 26.5228 13.8075 25.7373 14.4482L25.5859 14.5859L18 22.1719L14.4141 18.5859L14.2627 18.4482C13.4771 17.8076 12.3182 17.8537 11.5859 18.5859C10.8537 19.3182 10.8076 20.4771 11.4482 21.2627L11.5859 21.4141L16.5859 26.4141L16.7373 26.5518C17.5229 27.1925 18.6818 27.1463 19.4141 26.4141L28.4141 17.4141L28.5518 17.2627C29.1925 16.4772 29.1463 15.3182 28.4141 14.5859Z" fill="#262626"/>
</svg>
