<svg width="40" height="40" viewBox="0 0 40 40" fill="none" xmlns="http://www.w3.org/2000/svg">
<path d="M29.5859 7.58582C30.3669 6.80481 31.6329 6.80489 32.414 7.58582C33.195 8.36687 33.195 9.6329 32.414 10.4139L22.8281 19.9999L32.414 29.5858L32.5517 29.7372C33.1925 30.5227 33.1463 31.6817 32.414 32.4139C31.6817 33.1462 30.5228 33.1924 29.7372 32.5516L29.5859 32.4139L19.9999 22.828L10.414 32.4139C9.63295 33.195 8.36692 33.195 7.58588 32.4139C6.80494 31.6329 6.80487 30.3668 7.58588 29.5858L17.1718 19.9999L7.58588 10.4139L7.44818 10.2626C6.8075 9.47703 6.85365 8.31805 7.58588 7.58582C8.3181 6.85359 9.47709 6.80744 10.2626 7.44813L10.414 7.58582L19.9999 17.1718L29.5859 7.58582Z" fill="#262626"/>
</svg>
