<svg width="40" height="40" viewBox="0 0 40 40" fill="none" xmlns="http://www.w3.org/2000/svg">
<path d="M17 14C18.1046 14 19 14.8954 19 16V26C19 27.1046 18.1046 28 17 28C15.8954 28 15 27.1046 15 26V16C15 14.8954 15.8954 14 17 14Z" fill="#262626"/>
<path d="M23 14C24.1046 14 25 14.8954 25 16V26C25 27.1046 24.1046 28 23 28C21.8954 28 21 27.1046 21 26V16C21 14.8954 21.8954 14 23 14Z" fill="#262626"/>
<path fill-rule="evenodd" clip-rule="evenodd" d="M24 5C25.1046 5 26 5.89543 26 7H32C33.1046 7 34 7.89543 34 9C34 10.1046 33.1046 11 32 11V31C32 33.2091 30.2091 35 28 35H12C9.79086 35 8 33.2091 8 31V11C6.89543 11 6 10.1046 6 9C6 7.89543 6.89543 7 8 7H14C14 5.89543 14.8954 5 16 5H24ZM12 31H28V11H12V31Z" fill="#262626"/>
</svg>
