<svg width="40" height="40" viewBox="0 0 40 40" fill="none" xmlns="http://www.w3.org/2000/svg">
<path fill-rule="evenodd" clip-rule="evenodd" d="M26.8281 22L13.4141 35.4141C13.3671 35.461 13.3171 35.5047 13.2656 35.5469C13.2458 35.5632 13.2244 35.5774 13.2041 35.5928C13.1725 35.6167 13.1414 35.6411 13.1084 35.6631C13.0841 35.6793 13.059 35.6939 13.0342 35.709C13.0035 35.7276 12.9731 35.7467 12.9414 35.7637C12.9088 35.7811 12.8751 35.796 12.8418 35.8115C12.817 35.8231 12.7929 35.8361 12.7676 35.8467C12.7407 35.8578 12.7128 35.866 12.6855 35.876C12.6484 35.8896 12.6114 35.9036 12.5732 35.915C12.5604 35.9189 12.5471 35.9212 12.5342 35.9248C12.4862 35.9381 12.438 35.9512 12.3887 35.9609C12.3609 35.9664 12.3327 35.9693 12.3047 35.9736C12.2681 35.9792 12.2315 35.9857 12.1943 35.9893C12.1297 35.9955 12.0649 36 12 36H6C4.89543 36 4 35.1046 4 34V28C4 27.896 4.01007 27.7941 4.02539 27.6943C4.0297 27.6664 4.03259 27.6382 4.03809 27.6104C4.05827 27.5082 4.08794 27.4094 4.12305 27.3135C4.13299 27.2863 4.14118 27.2583 4.15234 27.2314C4.16288 27.2061 4.17596 27.182 4.1875 27.1572C4.20299 27.1239 4.21793 27.0902 4.23535 27.0576C4.25232 27.0259 4.27144 26.9955 4.29004 26.9648C4.30327 26.943 4.31594 26.9208 4.33008 26.8994L4.3418 26.8818C4.36202 26.8519 4.38448 26.8237 4.40625 26.7949C4.42166 26.7746 4.43586 26.7533 4.45215 26.7334C4.49425 26.682 4.539 26.6329 4.58594 26.5859L18 13.1719L26.8281 22ZM8 28.8281V32H11.1719L21.1719 22L18 18.8281L8 28.8281Z" fill="#262626"/>
<path fill-rule="evenodd" clip-rule="evenodd" d="M28.0957 4.00195C28.1861 4.00629 28.276 4.01862 28.3652 4.03516C28.5699 4.07294 28.77 4.1412 28.957 4.24316C28.9589 4.24421 28.961 4.24504 28.9629 4.24609L29.1113 4.33594C29.1632 4.37062 29.2136 4.40819 29.2627 4.44824L29.4141 4.58594L35.4141 10.5859L35.5518 10.7373C35.6195 10.8204 35.6781 10.9085 35.7305 10.999C35.7388 11.0134 35.7479 11.0274 35.7559 11.042C35.858 11.229 35.926 11.4291 35.9639 11.6338C35.9805 11.7234 35.9937 11.8135 35.998 11.9043V12.0957C35.9937 12.1862 35.9804 12.2759 35.9639 12.3652C35.926 12.57 35.8579 12.7699 35.7559 12.957C35.7479 12.9716 35.7388 12.9856 35.7305 13C35.678 13.0907 35.6197 13.1794 35.5518 13.2627L35.4141 13.4141L29 19.8281L20.1719 11L26.5859 4.58594L26.7373 4.44824C26.8205 4.38037 26.9084 4.32102 26.999 4.26855C27.0134 4.26021 27.0274 4.25112 27.042 4.24316C27.229 4.14113 27.4292 4.07303 27.6338 4.03516C27.7234 4.01851 27.8136 4.0063 27.9043 4.00195H28.0957ZM25.8281 11L29 14.1719L31.1719 12L28 8.82812L25.8281 11Z" fill="#262626"/>
</svg>
