<svg width="40" height="40" viewBox="0 0 40 40" fill="none" xmlns="http://www.w3.org/2000/svg">
<path d="M20 24C21.1046 24 22 24.8954 22 26C22 27.1046 21.1046 28 20 28C18.8954 28 18 27.1046 18 26C18 24.8954 18.8954 24 20 24Z" fill="#262626"/>
<path d="M20 12C21.1046 12 22 12.8954 22 14V20C22 21.1046 21.1046 22 20 22C18.8954 22 18 21.1046 18 20V14C18 12.8954 18.8954 12 20 12Z" fill="#262626"/>
<path fill-rule="evenodd" clip-rule="evenodd" d="M20 4C28.8366 4 36 11.1634 36 20C36 28.8366 28.8366 36 20 36C11.1634 36 4 28.8366 4 20C4 11.1634 11.1634 4 20 4ZM20 8C13.3726 8 8 13.3726 8 20C8 26.6274 13.3726 32 20 32C26.6274 32 32 26.6274 32 20C32 13.3726 26.6274 8 20 8Z" fill="#262626"/>
</svg>
