<svg width="40" height="40" viewBox="0 0 40 40" fill="none" xmlns="http://www.w3.org/2000/svg">
<path fill-rule="evenodd" clip-rule="evenodd" d="M30.4834 5C32.5697 5 33.9973 7.06629 33.3135 8.99512L33.2412 9.18164L31.1748 14L33.2412 18.8184L33.3135 19.0049C33.9973 20.9337 32.5697 23 30.4834 23H11V34C11 35.1046 10.1046 36 9 36C7.89543 36 7 35.1046 7 34V8C7 6.34315 8.34315 5 10 5H30.4834ZM11 19H28.9668L27.3301 15.1816C27.0068 14.4271 27.0068 13.5729 27.3301 12.8184L28.9668 9H11V19Z" fill="#262626"/>
</svg>
