<svg width="40" height="40" viewBox="0 0 40 40" fill="none" xmlns="http://www.w3.org/2000/svg">
<path d="M32.2041 26.0107C33.2128 26.113 34 26.9643 34 28C34 29.0357 33.2128 29.887 32.2041 29.9893L32 30H8C6.89543 30 6 29.1046 6 28C6 26.8954 6.89543 26 8 26H32L32.2041 26.0107Z" fill="#262626"/>
<path d="M32.2041 18.0107C33.2128 18.113 34 18.9643 34 20C34 21.0357 33.2128 21.887 32.2041 21.9893L32 22H8C6.89543 22 6 21.1046 6 20C6 18.8954 6.89543 18 8 18H32L32.2041 18.0107Z" fill="#262626"/>
<path d="M32.2041 10.0107C33.2128 10.113 34 10.9643 34 12C34 13.0357 33.2128 13.887 32.2041 13.9893L32 14H8C6.89543 14 6 13.1046 6 12C6 10.8954 6.89543 10 8 10H32L32.2041 10.0107Z" fill="#262626"/>
</svg>
