<svg width="40" height="40" viewBox="0 0 40 40" fill="none" xmlns="http://www.w3.org/2000/svg">
<path d="M20.0004 15C22.7616 15.0002 25.0004 17.2387 25.0004 20C25.0004 22.7613 22.7616 24.9998 20.0004 25C17.2389 25 15.0004 22.7614 15.0004 20C15.0004 17.2386 17.2389 15 20.0004 15Z" fill="#262626"/>
<path fill-rule="evenodd" clip-rule="evenodd" d="M22.1527 3C23.6192 3 24.8716 4.06027 25.1127 5.50684L25.8177 9.74023L25.9769 9.83203L29.9955 8.32617C31.3688 7.81171 32.9126 8.36573 33.6459 9.63574L35.7982 13.3643L35.9242 13.6064C36.4542 14.7518 36.208 16.1114 35.3099 16.998L35.1078 17.1807L31.7953 19.9072V20.0918L35.1078 22.8193L35.3099 23.002C36.2722 23.9519 36.4856 25.4451 35.7982 26.6357L33.6459 30.3643C32.9584 31.5548 31.5581 32.1162 30.2543 31.7578L29.9955 31.6738L25.9779 30.168L25.8187 30.2598L25.1127 34.4932L25.0551 34.7598C24.7363 35.9809 23.6821 36.8736 22.4252 36.9873L22.1527 37H17.847L17.5746 36.9883C16.3177 36.8745 15.2634 35.9809 14.9447 34.7598L14.8881 34.4932L14.183 30.2598L14.0238 30.168L10.0052 31.6738L9.74548 31.7578C8.52857 32.0924 7.22735 31.6264 6.50037 30.5947L6.35388 30.3643L4.20154 26.6357C3.51415 25.4451 3.7276 23.9519 4.68982 23.002L4.89294 22.8193L8.20642 20.0918V19.9082L4.89294 17.1807C3.76081 16.2487 3.46749 14.6343 4.20056 13.3643L6.35388 9.63574C7.08717 8.36579 8.63199 7.8117 10.0052 8.32617L14.0238 9.83105L14.183 9.73926L14.8881 5.50684C15.1142 4.15067 16.2287 3.13437 17.5756 3.0127L17.847 3H22.1527ZM17.8177 12.2607L14.3881 14.2393L13.5043 13.9092L9.3949 12.3691L8.08826 14.6318L12.2054 18.0195L12.2064 18.9639L12.2054 21.9805L8.09021 25.3691L9.39587 27.6309L14.389 25.7598L17.8177 27.7393L18.6947 33L21.306 32.999L22.182 27.7402L25.6117 25.7598L30.6049 27.6318L31.9115 25.3691L27.7943 21.9795V18.0205L31.9115 14.6309L30.6058 12.3682L25.6117 14.2402L22.183 12.2607L22.0267 11.3291L21.307 7H18.6947L17.8177 12.2607Z" fill="#262626"/>
</svg>
