<svg width="20" height="20" viewBox="0 0 20 20" fill="none" xmlns="http://www.w3.org/2000/svg">
  <path d="M3.58588 3.58582C4.3181 2.85359 5.47709 2.80744 6.26263 3.44812L6.414 3.58582L9.99994 7.17176L13.5859 3.58582L13.7372 3.44812C14.5227 2.80736 15.6817 2.85366 16.414 3.58582C17.1463 4.31808 17.1925 5.47703 16.5517 6.26258L16.414 6.41394L12.8281 9.99988L16.414 13.5858L16.5517 13.7372C17.1925 14.5227 17.1463 15.6817 16.414 16.4139C15.6817 17.1462 14.5228 17.1924 13.7372 16.5516L13.5859 16.4139L9.99994 12.828L6.414 16.4139C5.63295 17.195 4.36692 17.195 3.58588 16.4139C2.80494 15.6329 2.80487 14.3668 3.58588 13.5858L7.17181 9.99988L3.58588 6.41394L3.44818 6.26258C2.8075 5.47703 2.85365 4.31804 3.58588 3.58582Z" fill="currentColor"/>
</svg>
