<svg width="20" height="20" viewBox="0 0 20 20" fill="none" xmlns="http://www.w3.org/2000/svg">
<path fill-rule="evenodd" clip-rule="evenodd" d="M9 2C12.866 2 16 5.13401 16 9C16 10.2056 15.6949 11.3397 15.1582 12.3301L17.4141 14.5859L17.5518 14.7373C18.1926 15.5229 18.1463 16.6818 17.4141 17.4141C16.6818 18.1463 15.5229 18.1926 14.7373 17.5518L14.5859 17.4141L12.3301 15.1582C11.3397 15.6949 10.2056 16 9 16C5.13401 16 2 12.866 2 9C2 5.13401 5.13401 2 9 2ZM9 6C7.34315 6 6 7.34315 6 9C6 10.6569 7.34315 12 9 12C10.6569 12 12 10.6569 12 9C12 7.34315 10.6569 6 9 6Z" fill="#262626"/>
</svg>
