<svg width="40" height="40" viewBox="0 0 40 40" fill="none" xmlns="http://www.w3.org/2000/svg">
<path fill-rule="evenodd" clip-rule="evenodd" d="M20 14C23.866 14 27 17.134 27 21C27 24.866 23.866 28 20 28C16.134 28 13 24.866 13 21C13 17.134 16.134 14 20 14ZM20 18C18.3431 18 17 19.3431 17 21C17 22.6569 18.3431 24 20 24C21.6569 24 23 22.6569 23 21C23 19.3431 21.6569 18 20 18Z" fill="currentColor"/>
<path fill-rule="evenodd" clip-rule="evenodd" d="M23.333 5C24.1985 5 25.041 5.28054 25.7334 5.7998L28.666 8H32C34.2091 8 36 9.79086 36 12V30C36 32.2091 34.2091 34 32 34H8C5.79086 34 4 32.2091 4 30V12C4 9.79086 5.79086 8 8 8H11.334L14.2666 5.7998L14.5332 5.61621C15.17 5.21469 15.9098 5 16.667 5H23.333ZM13.2002 11.5996C12.854 11.8593 12.4327 12 12 12H8V30H32V12H28C27.5673 12 27.146 11.8593 26.7998 11.5996L23.333 9H16.667L13.2002 11.5996Z" fill="currentColor"/>
</svg>
