<svg width="40" height="40" viewBox="0 0 40 40" fill="none" xmlns="http://www.w3.org/2000/svg">
<path d="M25.7373 14.4482C26.5229 13.8074 27.6818 13.8537 28.4141 14.5859C29.1463 15.3182 29.1926 16.4771 28.5518 17.2627L28.4141 17.4141L19.4141 26.4141C18.6818 27.1463 17.5229 27.1926 16.7373 26.5518L16.5859 26.4141L11.5859 21.4141L11.4482 21.2627C10.8074 20.4771 10.8537 19.3182 11.5859 18.5859C12.3182 17.8537 13.4771 17.8074 14.2627 18.4482L14.4141 18.5859L18 22.1719L25.5859 14.5859L25.7373 14.4482Z" fill="currentColor"/>
<path fill-rule="evenodd" clip-rule="evenodd" d="M20 4C28.8366 4 36 11.1634 36 20C36 28.8366 28.8366 36 20 36C11.1634 36 4 28.8366 4 20C4 11.1634 11.1634 4 20 4ZM20 8C13.3726 8 8 13.3726 8 20C8 26.6274 13.3726 32 20 32C26.6274 32 32 26.6274 32 20C32 13.3726 26.6274 8 20 8Z" fill="currentColor"/>
</svg>
