<svg width="40" height="40" viewBox="0 0 40 40" fill="none" xmlns="http://www.w3.org/2000/svg">
<path fill-rule="evenodd" clip-rule="evenodd" d="M20.0001 8.74511C23.6603 5.08499 29.5947 5.08496 33.2549 8.74511C36.9151 12.4053 36.9151 18.3398 33.2549 22L22.8272 32.4277L22.6778 32.5693C21.1584 33.9423 18.8417 33.9424 17.3223 32.5693L17.1729 32.4277L6.74517 22C3.1993 18.4541 3.08872 12.7739 6.41314 9.09472L6.74517 8.74511C10.2911 5.19929 15.9712 5.08871 19.6504 8.41308L20.0001 8.74511ZM30.4268 11.5732C28.3287 9.4752 24.9263 9.47517 22.8282 11.5732L20.0001 14.4023L17.1719 11.5732C15.1395 9.54087 11.8835 9.47764 9.77447 11.3828L9.5733 11.5732C7.47519 13.6714 7.47521 17.0737 9.5733 19.1719L20.0001 29.5986C23.1277 26.471 28.0396 21.5592 30.4268 19.1719L30.6172 18.9707C32.4609 16.9298 32.4609 13.8153 30.6172 11.7744L30.4268 11.5732Z" fill="currentColor"/>
</svg>
