<svg width="40" height="40" viewBox="0 0 40 40" fill="none" xmlns="http://www.w3.org/2000/svg">
<path fill-rule="evenodd" clip-rule="evenodd" d="M18.8984 4.33118C19.6133 3.85876 20.5592 3.89204 21.2412 4.43177L33.2412 13.9318L33.4111 14.0831C33.7858 14.4562 34 14.9653 34 15.5001V34.0001C33.9999 35.1046 33.1045 36.0001 32 36.0001H24C22.8955 36.0001 22.0001 35.1046 22 34.0001V30.0001H18V34.0001C17.9999 35.1046 17.1045 36.0001 16 36.0001H8C6.89547 36.0001 6.00007 35.1046 6 34.0001V15.5001C6 14.889 6.27966 14.3111 6.75879 13.9318L18.7588 4.43177L18.8984 4.33118ZM10 16.4669V32.0001H14V28.0001C14 26.8956 14.8954 26.0001 16 26.0001H24C25.1046 26.0001 26 26.8956 26 28.0001V32.0001H30V16.4669L20 8.55091L10 16.4669Z" fill="currentColor"/>
</svg>
