<svg width="40" height="40" viewBox="0 0 40 40" fill="none" xmlns="http://www.w3.org/2000/svg">
<path fill-rule="evenodd" clip-rule="evenodd" d="M31.2061 5.00488C33.3194 5.11211 35 6.85996 35 9V31L34.9951 31.2061C34.8913 33.2512 33.2512 34.8913 31.2061 34.9951L31 35H9L8.79395 34.9951C6.7488 34.8913 5.10865 33.2512 5.00488 31.2061L5 31V9C5 6.85996 6.68056 5.11211 8.79395 5.00488L9 5H31L31.2061 5.00488ZM9 31H31V9H9V31Z" fill="currentColor"/>
<path d="M29.0913 27.4855C29.4912 28.152 29.0111 29 28.2338 29H11.8042C11.0188 29 10.54 28.136 10.9562 27.47L14.152 22.3568C14.5437 21.7301 15.4563 21.7301 15.848 22.3568L18.9795 27.3672L23.1425 20.4291C23.5309 19.7818 24.4691 19.7818 24.8575 20.4291L29.0913 27.4855Z" fill="currentColor"/>
</svg>
