<svg width="40" height="40" viewBox="0 0 40 40" fill="none" xmlns="http://www.w3.org/2000/svg">
<path d="M9 17C10.6569 17 12 18.3431 12 20C12 21.6569 10.6569 23 9 23C7.34315 23 6 21.6569 6 20C6 18.3431 7.34315 17 9 17Z" fill="currentColor"/>
<path d="M20 17C21.6569 17 23 18.3431 23 20C23 21.6569 21.6569 23 20 23C18.3431 23 17 21.6569 17 20C17 18.3431 18.3431 17 20 17Z" fill="currentColor"/>
<path d="M31 17C32.6569 17 34 18.3431 34 20C34 21.6569 32.6569 23 31 23C29.3431 23 28 21.6569 28 20C28 18.3431 29.3431 17 31 17Z" fill="currentColor"/>
</svg>
