<svg width="40" height="40" viewBox="0 0 40 40" fill="none" xmlns="http://www.w3.org/2000/svg">
<path d="M20 30C21.1046 30 22 30.8954 22 32C22 33.1046 21.1046 34 20 34C18.8954 34 18 33.1046 18 32C18 30.8954 18.8954 30 20 30Z" fill="currentColor"/>
<path d="M26 30C27.1046 30 28 30.8954 28 32C28 33.1046 27.1046 34 26 34C24.8954 34 24 33.1046 24 32C24 30.8954 24.8954 30 26 30Z" fill="currentColor"/>
<path d="M32 30C33.1046 30 34 30.8954 34 32C34 33.1046 33.1046 34 32 34C30.8954 34 30 33.1046 30 32C30 30.8954 30.8954 30 32 30Z" fill="currentColor"/>
<path d="M20 24C21.1046 24 22 24.8954 22 26C22 27.1046 21.1046 28 20 28C18.8954 28 18 27.1046 18 26C18 24.8954 18.8954 24 20 24Z" fill="currentColor"/>
<path d="M32 24C33.1046 24 34 24.8954 34 26C34 27.1046 33.1046 28 32 28C30.8954 28 30 27.1046 30 26C30 24.8954 30.8954 24 32 24Z" fill="currentColor"/>
<path fill-rule="evenodd" clip-rule="evenodd" d="M18.2061 6.00488C20.3194 6.11211 22 7.85996 22 10V18L21.9951 18.2061C21.8879 20.3194 20.14 22 18 22H10L9.79395 21.9951C7.68056 21.8879 6 20.14 6 18V10C6 7.79086 7.79086 6 10 6H18L18.2061 6.00488ZM10 18H18V10H10V18Z" fill="currentColor"/>
<path d="M26 18C27.1046 18 28 18.8954 28 20C28 21.1046 27.1046 22 26 22C24.8954 22 24 21.1046 24 20C24 18.8954 24.8954 18 26 18Z" fill="currentColor"/>
<path d="M32 18C33.1046 18 34 18.8954 34 20C34 21.1046 33.1046 22 32 22C30.8954 22 30 21.1046 30 20C30 18.8954 30.8954 18 32 18Z" fill="currentColor"/>
</svg>
