<svg width="40" height="40" viewBox="0 0 40 40" fill="none" xmlns="http://www.w3.org/2000/svg">
<path d="M20 19C23.1759 19 25.6796 19.9497 27.5967 21.46C29.484 22.947 30.6913 24.8877 31.4668 26.7207C32.2427 28.5547 32.6212 30.3609 32.8086 31.6895C32.903 32.3586 32.9504 32.9198 32.9746 33.3203C32.9867 33.5209 32.9928 33.6827 32.9961 33.7979C32.9977 33.8554 32.9986 33.9016 32.999 33.9355C32.9993 33.9525 32.9999 33.9668 33 33.9775V33.998C33 33.998 33 34 31 34H33C33 35.1046 32.1046 36 31 36C29.9643 36 29.113 35.2128 29.0107 34.2041L29 34C29 33.9976 29.0001 33.9944 29 33.9902C28.9998 33.975 28.9991 33.9478 28.998 33.9102C28.9959 33.835 28.9918 33.717 28.9824 33.5625C28.9637 33.2521 28.9251 32.7974 28.8477 32.248C28.6913 31.1391 28.3823 29.6953 27.7832 28.2793C27.1838 26.8625 26.3282 25.553 25.1221 24.6025C23.9455 23.6755 22.3238 23 20 23C17.6762 23 16.0545 23.6755 14.8779 24.6025C13.6718 25.553 12.8162 26.8625 12.2168 28.2793C11.6177 29.6953 11.3087 31.1391 11.1523 32.248C11.0749 32.7974 11.0363 33.2521 11.0176 33.5625C11.0082 33.717 11.0041 33.835 11.002 33.9102C11.0009 33.9478 11.0002 33.975 11 33.9902V34.002L10.999 34.001C10.9985 35.1051 10.1042 36 9 36C7.89543 36 7 35.1046 7 34H9C7 34 7 33.998 7 33.998V33.9775C7.00007 33.9668 7.00075 33.9525 7.00098 33.9355C7.00144 33.9016 7.00229 33.8554 7.00391 33.7979C7.00715 33.6827 7.01327 33.5209 7.02539 33.3203C7.04961 32.9198 7.09704 32.3586 7.19141 31.6895C7.37876 30.3609 7.75729 28.5547 8.5332 26.7207C9.30871 24.8877 10.516 22.947 12.4033 21.46C14.3204 19.9497 16.8241 19 20 19Z" fill="currentColor"/>
<path fill-rule="evenodd" clip-rule="evenodd" d="M20 4C23.866 4 27 7.13401 27 11C27 14.866 23.866 18 20 18C16.134 18 13 14.866 13 11C13 7.13401 16.134 4 20 4ZM20 8C18.3431 8 17 9.34315 17 11C17 12.6569 18.3431 14 20 14C21.6569 14 23 12.6569 23 11C23 9.34315 21.6569 8 20 8Z" fill="currentColor"/>
</svg>
