<svg width="40" height="40" viewBox="0 0 40 40" fill="none" xmlns="http://www.w3.org/2000/svg">
<path d="M20 19C23.1759 19 25.6796 19.9497 27.5967 21.46C29.484 22.947 30.6913 24.8877 31.4668 26.7207C32.2427 28.5547 32.6212 30.3609 32.8086 31.6895C32.903 32.3586 32.9504 32.9198 32.9746 33.3203C32.9867 33.5209 32.9928 33.6827 32.9961 33.7979C32.9977 33.8554 32.9986 33.9016 32.999 33.9355C32.9993 33.9525 32.9999 33.9668 33 33.9775V33.998C33 33.998 33 34 31 34H33C33 35.1046 32.1046 36 31 36H9C7.89543 36 7 35.1046 7 34H9C7 34 7 33.998 7 33.998V33.9775C7.00007 33.9668 7.00075 33.9525 7.00098 33.9355C7.00144 33.9016 7.00229 33.8554 7.00391 33.7979C7.00715 33.6827 7.01327 33.5209 7.02539 33.3203C7.04961 32.9198 7.09704 32.3586 7.19141 31.6895C7.37876 30.3609 7.75729 28.5547 8.5332 26.7207C9.30871 24.8877 10.516 22.947 12.4033 21.46C14.3204 19.9497 16.8241 19 20 19Z" fill="currentColor"/>
<path d="M20 4C23.866 4 27 7.13401 27 11C27 14.866 23.866 18 20 18C16.134 18 13 14.866 13 11C13 7.13401 16.134 4 20 4Z" fill="currentColor"/>
</svg>
