<svg width="100" height="18" viewBox="0 0 100 18" fill="none" xmlns="http://www.w3.org/2000/svg">
<path d="M4 8H6V6H10V8H12V18H8V8H6V10H4V18H0V6H4V8Z" fill="currentColor"/>
<path d="M18 18H14V6H18V18Z" fill="currentColor"/>
<path fill-rule="evenodd" clip-rule="evenodd" d="M32 18H22V16H20V8H22V6H28V0H32V18ZM28 8H24V16H28V8Z" fill="currentColor"/>
<path fill-rule="evenodd" clip-rule="evenodd" d="M44 8H46V16H44V18H36V16H34V8H36V6H44V8ZM38 16H42V8H38V16Z" fill="currentColor"/>
<path d="M52 8H54V6H58V8H62V6H66V8H68V18H64V8H62V10H60V18H56V8H54V10H52V18H48V6H52V8Z" fill="currentColor"/>
<path d="M74 18H70V6H74V18Z" fill="currentColor"/>
<path d="M80 18H76V14H80V18Z" fill="currentColor"/>
<path d="M86 18H82V6H86V18Z" fill="currentColor"/>
<path fill-rule="evenodd" clip-rule="evenodd" d="M98 8H100V16H98V18H90V16H88V8H90V6H98V8ZM92 16H96V8H92V16Z" fill="currentColor"/>
<path d="M18 4H14V0H18V4Z" fill="currentColor"/>
<path d="M74 4H70V0H74V4Z" fill="currentColor"/>
<path d="M86 4H82V0H86V4Z" fill="currentColor"/>
</svg>
